<?xml version="1.0" standalone="no"?>
<!DOCTYPE svg PUBLIC "-//W3C//DTD SVG 20010904//EN"
 "http://www.w3.org/TR/2001/REC-SVG-20010904/DTD/svg10.dtd">
<svg version="1.0" xmlns="http://www.w3.org/2000/svg"
 width="1220.000000pt" height="559.000000pt" viewBox="0 0 1220.000000 559.000000"
 preserveAspectRatio="xMidYMid meet">

<g transform="translate(0.000000,559.000000) scale(0.100000,-0.100000)"
fill="#000000" stroke="none">
<path d="M5729 5526 c-3 -3 -68 -11 -145 -17 -76 -5 -150 -15 -164 -22 -34
-16 -70 -49 -70 -64 0 -16 -84 -16 -210 -2 -154 17 -325 28 -332 21 -4 -4 -8
-106 -10 -227 -3 -347 -7 -408 -23 -395 -11 9 -15 1 -24 -42 -15 -78 -26 -151
-24 -166 0 -8 -5 -11 -13 -8 -11 4 -15 -3 -14 -32 1 -32 -5 -77 -10 -77 -3 0
-7 -42 -19 -163 -5 -62 -14 -118 -18 -125 -4 -6 -8 -56 -8 -109 0 -73 3 -98
12 -98 8 0 13 13 13 35 0 31 3 35 25 35 23 0 25 -4 25 -43 0 -51 -15 -75 -53
-85 l-28 -7 -4 -155 c-2 -85 -7 -229 -12 -320 -4 -91 -8 -432 -8 -759 l0 -593
-405 6 c-223 3 -452 11 -510 16 -78 7 -970 31 -1102 30 -10 0 -28 0 -40 0
-621 15 -836 22 -938 30 -69 5 -325 14 -570 20 -245 6 -510 13 -589 16 l-144
6 9 -24 c8 -21 11 -325 3 -333 -2 -2 -38 -6 -79 -9 -103 -7 -130 -18 -130 -54
0 -45 15 -52 117 -52 l93 0 0 -124 c0 -110 2 -126 21 -150 11 -14 27 -26 34
-26 8 0 17 -15 20 -38 4 -20 19 -62 34 -92 25 -49 33 -56 72 -67 24 -6 91 -12
148 -12 87 -1 106 -4 117 -18 11 -16 35 -18 188 -21 164 -3 179 -2 210 17 43
27 82 27 89 2 5 -19 17 -19 378 -15 206 3 409 9 453 14 43 6 176 13 295 16
119 3 260 12 315 19 84 11 102 17 127 41 69 66 99 182 99 380 0 159 -15 244
-58 333 -12 25 -18 49 -14 53 5 5 40 4 78 -2 38 -5 99 -10 137 -10 l67 0 2
-242 c1 -134 1 -261 0 -283 -2 -22 -4 -61 -5 -87 -2 -42 -5 -48 -24 -48 -16 0
-21 -4 -17 -15 5 -12 27 -15 115 -15 l109 0 0 -166 0 -166 34 -34 c30 -30 40
-34 89 -34 54 0 55 -1 75 -40 28 -58 82 -125 117 -145 25 -15 66 -19 265 -26
370 -12 347 -9 387 -47 19 -17 37 -32 41 -32 4 0 21 -8 37 -17 28 -16 95 -17
820 -18 573 0 828 4 930 13 77 7 217 17 310 22 193 11 387 33 428 49 16 6 52
10 80 10 29 -1 44 -3 35 -6 -37 -9 -16 -20 50 -26 37 -4 138 -7 224 -7 94 0
159 -4 163 -10 3 -5 1 -10 -4 -10 -6 0 -11 -6 -11 -14 0 -11 28 -16 124 -21
68 -4 145 -5 171 -2 38 5 47 3 51 -11 3 -9 10 -26 14 -37 5 -11 11 -40 14 -65
3 -25 2 -36 -1 -26 -4 15 -7 16 -14 5 -8 -12 -10 -12 -18 0 -6 9 -11 10 -15 2
-9 -14 -53 -14 -61 -1 -5 8 -11 8 -19 1 -9 -7 -23 -7 -45 2 -26 10 -33 9 -41
-2 -7 -12 -11 -12 -23 -2 -12 9 -16 9 -20 -1 -3 -10 -9 -11 -25 -1 -16 10 -22
10 -25 0 -3 -9 -9 -9 -24 0 -11 6 -37 9 -58 6 -24 -3 -35 -1 -31 5 4 6 -2 8
-14 5 -11 -3 -20 -9 -20 -13 0 -4 -27 -7 -59 -6 -33 1 -58 -1 -56 -5 2 -3 -12
-5 -30 -5 -19 1 -35 3 -35 6 0 3 -12 6 -28 6 -15 1 -21 -1 -14 -3 6 -3 12 -9
12 -14 0 -4 -7 -6 -15 -3 -8 4 -22 1 -30 -6 -14 -11 -19 -7 -16 13 0 4 -4 7
-9 7 -14 0 -12 -11 5 -34 13 -17 15 -17 21 -3 4 13 9 14 19 4 7 -7 11 -15 9
-18 -2 -3 3 -6 11 -6 8 0 11 5 8 11 -4 6 1 5 10 -2 9 -8 34 -12 59 -11 24 2
48 0 53 -3 6 -2 32 -6 60 -7 27 -1 53 -7 57 -14 5 -9 10 -9 19 0 10 10 17 9
33 -5 11 -9 16 -11 12 -4 -9 15 10 17 19 2 5 -8 11 -8 20 0 9 7 15 8 19 1 4
-6 23 -9 44 -7 20 2 43 -1 49 -7 7 -5 24 -7 38 -5 13 3 26 1 27 -3 2 -5 26
-10 53 -11 28 -2 53 -7 56 -12 4 -4 25 -9 48 -10 35 -2 41 1 42 18 0 15 2 17
6 6 4 -8 11 -20 17 -27 27 -30 36 -43 36 -48 0 -8 52 -65 95 -105 100 -94 138
-114 235 -129 122 -19 254 -24 326 -12 39 6 184 11 322 12 138 0 276 4 307 8
34 5 55 4 55 -2 0 -6 9 -2 20 8 11 10 20 13 20 7 0 -7 9 -12 21 -12 12 0 17 4
14 11 -4 6 2 5 14 -3 17 -10 25 -10 48 3 31 18 67 19 85 1 15 -15 28 -15 28
-1 0 5 -4 8 -9 4 -5 -3 -12 -2 -15 3 -3 5 19 7 50 5 30 -2 54 0 53 4 -3 20 2
23 15 10 16 -15 118 -12 124 4 5 12 32 11 32 -1 0 -5 5 -10 10 -10 7 0 7 6 0
19 -9 18 -8 18 23 8 17 -7 35 -16 38 -20 3 -5 9 0 13 10 7 17 9 16 28 -7 12
-14 19 -18 15 -9 -7 20 40 33 80 22 17 -4 24 -2 19 5 -4 6 2 8 14 5 11 -3 20
-13 21 -22 0 -10 4 -8 10 7 5 13 6 29 2 34 -3 7 -1 8 6 4 6 -4 25 4 42 19 30
24 33 25 50 9 10 -9 21 -25 25 -36 4 -15 9 -17 17 -9 6 6 24 11 40 11 16 0 26
4 22 10 -3 6 -1 10 4 10 6 0 11 -7 11 -17 0 -9 3 -13 6 -10 4 3 15 2 26 -4 18
-9 17 -6 -6 34 -14 24 -27 57 -27 73 -1 21 -3 23 -6 9 -8 -33 -17 -36 -106
-38 -47 0 -84 -3 -82 -6 2 -4 -7 -6 -20 -6 -13 0 -21 3 -19 7 7 11 -69 3 -93
-10 -12 -6 -23 -8 -25 -3 -2 4 -13 12 -25 15 -17 5 -23 3 -23 -8 0 -12 -6 -13
-31 -6 -17 5 -40 5 -53 0 -15 -5 -27 -5 -35 3 -8 8 -11 8 -11 -1 0 -9 -5 -10
-18 -3 -13 7 -23 6 -30 -1 -9 -9 -12 -9 -12 0 0 7 -7 12 -15 12 -8 0 -15 -4
-15 -10 0 -5 -3 -9 -7 -9 -33 5 -84 -4 -97 -17 -15 -14 -16 -14 -16 4 0 18 -4
19 -47 10 -27 -6 -54 -15 -60 -20 -9 -7 -13 -7 -13 2 0 7 -7 10 -15 7 -8 -4
-17 -2 -20 3 -4 6 -16 10 -28 10 -21 -1 -21 -1 3 -15 19 -11 21 -14 8 -15 -10
0 -18 -5 -18 -11 0 -5 -5 -7 -10 -4 -6 4 -8 10 -6 14 3 4 -4 12 -15 19 -16 10
-19 9 -19 -5 0 -15 -9 -18 -58 -18 -31 1 -60 -3 -64 -9 -4 -6 -20 -6 -44 2
-25 7 -42 8 -50 1 -6 -5 -16 -9 -20 -8 -5 1 -25 -1 -44 -4 -19 -4 -72 -9 -118
-11 l-83 -5 43 34 c45 35 108 99 108 110 0 3 6 12 13 19 6 8 18 23 26 34 8 12
18 19 22 16 4 -2 5 5 2 16 -3 11 -1 20 5 20 5 0 13 17 16 38 4 20 14 51 23 69
15 28 19 30 42 21 17 -6 46 -6 86 1 33 6 141 13 240 17 99 3 196 10 216 14 33
7 39 5 50 -16 12 -24 39 -33 39 -14 0 6 7 10 15 10 8 0 15 -5 15 -10 0 -6 17
-11 38 -11 78 -1 117 -4 130 -12 7 -5 25 -6 39 -3 14 4 31 2 39 -5 7 -6 30 -9
49 -7 19 2 35 1 35 -2 0 -12 204 2 217 15 6 7 24 10 39 7 23 -4 26 -2 20 13
-6 17 9 45 25 45 4 0 16 -14 26 -31 16 -28 21 -30 58 -26 28 4 45 1 57 -10 17
-15 18 -14 18 19 0 22 7 41 20 53 20 18 20 17 20 -52 0 -40 5 -76 13 -86 7
-10 41 -24 77 -33 95 -21 96 -22 74 -38 -10 -8 -22 -12 -26 -10 -4 2 -9 0 -13
-6 -3 -5 -1 -10 5 -10 6 0 9 -4 5 -9 -3 -5 3 -12 12 -14 10 -3 5 -5 -12 -4
-73 2 -99 -3 -87 -15 19 -19 14 -44 -11 -61 -22 -14 -24 -13 -56 25 -22 26
-36 36 -41 28 -4 -6 -22 -12 -41 -12 -19 -1 -36 -5 -39 -9 -10 -14 -88 -13
-107 2 -17 13 -17 12 1 -16 30 -49 54 -70 79 -73 31 -2 61 30 55 60 -4 20 0
23 31 23 34 0 36 -2 39 -37 3 -36 16 -51 24 -28 2 6 39 11 83 13 44 1 83 7 87
12 5 6 8 5 8 -2 0 -7 8 -13 18 -13 14 0 15 2 2 10 -12 8 -11 10 8 10 12 0 22
-4 22 -8 0 -5 24 -5 53 -1 28 3 56 4 60 2 5 -3 16 2 25 10 18 15 98 34 190 46
28 4 57 12 64 19 7 7 29 12 49 12 21 0 41 5 44 10 3 6 13 10 22 10 19 0 102
40 121 57 7 7 16 13 20 13 11 0 82 68 82 79 0 5 4 11 8 13 14 5 68 90 96 149
23 49 31 58 59 62 17 3 54 0 82 -5 61 -13 195 -4 206 13 5 8 36 15 80 17 80 5
99 16 99 59 0 15 7 60 15 98 24 109 22 391 -4 533 -22 121 -33 152 -57 152
-26 0 -33 -41 -44 -240 -6 -107 -13 -217 -16 -245 -6 -49 -29 -84 -56 -86 -7
0 1 -7 17 -14 17 -8 23 -14 14 -15 -9 0 -32 -2 -50 -5 -26 -4 -30 -3 -14 4 19
9 19 10 -3 10 -12 1 -25 7 -27 14 -5 14 -13 90 -14 130 -1 21 -6 27 -23 28
-18 1 -16 3 10 10 29 9 32 13 32 47 0 64 -9 82 -41 82 -27 0 -28 -1 -32 -62
l-3 -63 -2 63 c-1 36 -6 62 -13 62 -11 0 -5 -92 8 -125 3 -10 0 -21 -8 -26
-10 -6 -10 -9 -2 -9 10 0 10 -6 1 -25 -8 -19 -8 -28 3 -42 9 -11 10 -14 2 -9
-8 4 -13 1 -13 -8 0 -9 4 -16 9 -16 14 0 20 -38 7 -49 -6 -5 -62 -12 -124 -16
-62 -4 -114 -11 -117 -15 -2 -4 -35 -8 -72 -9 -37 0 -91 -4 -119 -7 l-51 -6
-7 72 c-3 39 -4 76 0 81 8 14 -279 -1 -289 -15 -4 -6 -5 -44 -1 -83 l6 -73
-28 -1 c-16 0 -157 -4 -314 -9 -377 -11 -1027 6 -1052 28 -10 8 -18 19 -18 24
0 14 -53 128 -180 391 -34 70 -60 131 -57 134 3 3 133 0 289 -7 156 -6 337
-13 403 -16 66 -2 147 -12 181 -20 49 -13 101 -15 285 -11 544 12 1005 30
1016 38 6 6 13 6 15 1 2 -5 32 -6 73 -1 39 5 96 11 128 15 40 4 57 10 57 20 0
8 7 14 15 14 8 0 15 5 15 10 0 6 13 10 30 10 40 0 130 40 130 58 0 19 -69 7
-85 -15 -7 -9 -25 -15 -41 -15 -110 4 -270 0 -329 -8 -38 -5 -130 -11 -202
-13 l-133 -3 0 27 c0 15 7 29 16 33 13 5 15 16 10 64 -4 31 -11 180 -16 331
-5 150 -14 328 -20 395 -12 147 -32 404 -33 429 -1 9 -7 17 -14 17 -7 0 -13
19 -15 53 l-3 52 -119 7 c-67 5 -125 13 -130 19 -11 12 101 7 172 -7 42 -9 41
5 -6 36 -20 14 -40 28 -43 33 -3 4 -82 6 -175 5 l-169 -3 75 -29 c114 -43 139
-58 159 -92 36 -61 36 -72 -1 -76 l-34 -3 12 -105 c16 -142 32 -421 45 -805 7
-176 16 -325 21 -332 6 -7 20 -11 31 -10 16 1 23 -4 25 -20 3 -22 0 -23 -70
-23 -40 0 -93 -5 -118 -11 -62 -14 -1020 -15 -1125 -1 -44 6 -189 14 -322 17
-133 4 -259 11 -280 16 -21 5 -61 9 -90 9 -61 0 -83 7 -83 26 0 14 -44 101
-89 174 -11 19 -24 42 -28 50 -4 8 -12 20 -19 25 -7 6 -15 20 -19 33 l-6 22
630 0 c414 0 631 -3 631 -10 0 -7 -147 -10 -420 -10 -329 0 -420 -3 -420 -12
0 -7 13 -38 29 -69 15 -31 35 -69 43 -85 8 -16 24 -47 35 -69 l20 -39 239 -4
c132 -2 255 -7 274 -13 19 -5 82 -9 139 -9 l104 0 -6 82 c-4 46 -9 118 -13
161 l-7 77 27 0 c25 0 26 2 26 53 0 28 -5 81 -11 117 -5 36 -14 100 -19 143
-5 43 -14 103 -20 135 -6 31 -18 93 -26 137 -31 160 -96 433 -115 483 -5 13
-6 34 -3 46 5 21 1 24 -33 31 -21 4 -42 10 -48 15 -5 4 -32 11 -60 15 -27 4
-54 10 -60 15 -5 4 -32 11 -59 15 -27 3 -56 10 -65 15 -15 8 -91 25 -158 37
-18 3 -33 9 -33 15 0 5 -3 7 -7 5 -5 -3 -35 1 -68 8 -33 7 -49 13 -35 14 22 0
63 -7 150 -25 14 -2 61 -4 105 -3 114 3 184 -1 230 -12 22 -6 69 -16 105 -24
36 -8 97 -21 135 -29 126 -27 229 -46 233 -42 2 2 -10 7 -27 11 -17 4 -31 11
-31 16 0 5 -10 9 -22 9 -13 0 -36 7 -52 15 -15 8 -36 15 -45 15 -9 0 -29 7
-45 15 -15 8 -36 15 -45 15 -9 0 -28 6 -42 14 -14 7 -43 16 -64 20 -20 4 -45
11 -54 15 -9 5 -64 24 -123 43 l-107 34 72 2 c89 3 123 7 165 20 17 6 32 9 32
6 0 -2 15 11 34 29 87 81 104 94 151 117 31 15 74 26 112 28 l61 4 -28 28
c-15 15 -35 30 -44 33 -9 4 -16 16 -16 27 0 11 -4 20 -10 20 -5 0 -12 23 -16
50 -4 28 -10 50 -14 50 -5 0 -11 23 -15 50 -4 30 -11 48 -17 44 -7 -4 -9 6 -6
29 2 20 0 33 -4 31 -4 -3 -8 4 -8 15 0 12 -4 21 -9 21 -5 0 -12 23 -16 50 -4
31 -11 48 -18 43 -7 -4 -8 5 -4 28 5 26 4 30 -4 19 -8 -12 -9 -8 -4 14 5 22 3
27 -9 23 -9 -4 -16 2 -20 16 -9 33 -8 37 14 37 14 0 21 9 26 35 7 38 20 46 27
18 3 -13 5 -14 6 -3 0 8 -5 26 -12 40 -12 24 -20 26 -142 38 -72 7 -206 17
-300 22 -93 5 -219 13 -280 19 -139 14 -471 28 -965 42 -300 9 -388 14 -399
25 -8 7 -21 37 -28 65 -12 48 -12 52 9 70 21 16 41 18 198 18 96 0 231 -5 300
-11 117 -11 244 -13 468 -5 51 1 96 -1 98 -5 3 -4 60 -7 127 -6 l122 2 -118 3
c-73 2 -115 7 -112 13 4 6 -30 10 -89 10 -64 0 -99 4 -108 13 -7 7 -44 23 -83
36 -38 13 -74 27 -80 31 -13 10 -41 12 -138 11 l-78 -1 17 -31 16 -32 -143 7
c-79 4 -147 10 -152 13 -5 3 -60 8 -121 10 -68 3 -115 9 -121 16 -5 7 -30 22
-54 34 l-45 22 345 0 c391 1 399 1 419 19 8 7 26 22 40 33 14 10 18 17 9 13
-10 -3 -19 1 -22 11 -5 12 -15 14 -46 9 -36 -6 -44 -3 -71 24 -37 38 -39 76
-5 123 l26 34 -43 12 c-24 6 -39 11 -35 12 4 1 2 7 -5 15 -7 8 -16 12 -19 10
-4 -2 -17 5 -30 15 -13 10 -34 21 -46 25 -13 4 -23 12 -23 17 0 5 -9 9 -20 9
-11 0 -23 7 -26 15 -4 8 -17 15 -29 15 -13 0 -30 6 -37 13 -7 6 -29 13 -48 15
-19 2 -39 7 -44 12 -5 5 -15 6 -23 3 -8 -3 -18 -2 -22 3 -7 11 -96 37 -131 38
-14 1 -28 5 -31 9 -3 4 -17 9 -30 9 -13 1 -28 5 -34 9 -5 4 -26 10 -45 13 -39
8 -78 21 -127 42 -17 8 -39 14 -48 14 -9 0 -23 6 -31 14 -7 8 -33 17 -56 21
-24 4 -45 11 -48 15 -3 4 -27 10 -55 13 -27 3 -63 11 -80 17 -16 7 -52 14 -79
16 -26 3 -57 9 -67 14 -10 6 -31 10 -47 10 -37 0 -130 30 -199 64 -29 14 -57
26 -63 26 -5 0 -30 7 -56 16 -25 8 -48 13 -51 10 -3 -2 16 -25 42 -50 52 -51
47 -54 -40 -30 -33 9 -78 20 -100 24 -52 10 -195 48 -220 59 -11 5 -35 14 -54
20 -31 10 -35 9 -60 -20 -23 -26 -33 -30 -67 -27 -31 2 -39 7 -39 23 0 14 8
21 28 23 48 6 29 20 -40 31 -140 22 -483 48 -494 37z m-509 -416 c0 -5 -4 -10
-10 -10 -5 0 -10 5 -10 10 0 6 5 10 10 10 6 0 10 -4 10 -10z m2630 -605 c0
-19 -32 -19 -120 0 l-65 13 93 1 c75 1 92 -2 92 -14z m-215 -5 c3 -5 14 -10
24 -10 10 0 24 -6 31 -14 9 -12 17 -13 36 -4 32 15 40 4 26 -35 -6 -17 -9 -41
-6 -53 8 -30 -12 -41 -88 -49 -57 -5 -68 -4 -68 9 0 8 5 18 10 21 6 3 10 15
10 25 0 10 8 32 17 49 10 16 14 33 10 38 -11 10 -157 5 -172 -6 -5 -5 -22 -11
-37 -15 -36 -8 -54 -41 -39 -72 6 -13 16 -24 23 -24 30 0 33 -47 28 -400 -5
-339 -6 -356 -26 -385 -31 -45 -36 -65 -24 -100 l11 -32 176 -6 c96 -3 182 -3
190 0 11 4 13 17 8 55 -10 71 24 148 67 148 16 0 18 -9 18 -75 0 -68 -2 -75
-20 -75 -17 0 -20 -7 -20 -40 l0 -40 -204 0 c-126 0 -207 4 -211 10 -3 6 -15
10 -25 10 -23 0 -30 11 -41 58 -6 28 -4 41 8 54 15 17 13 18 -46 18 -46 0 -63
4 -67 15 -9 22 -24 18 -24 -6 0 -39 -33 -16 -52 36 -17 45 -19 80 -17 335 3
404 9 421 127 430 66 5 67 6 70 35 5 40 38 68 103 87 62 18 185 23 194 8z
m332 -367 c-3 -10 -5 -4 -5 12 0 17 2 24 5 18 2 -7 2 -21 0 -30z m93 -107 c0
-45 -19 -77 -55 -91 -43 -19 -40 -19 -41 9 -2 20 4 26 25 28 22 3 26 8 29 41
3 29 7 37 23 37 13 0 19 -7 19 -24z m1744 -35 c3 -22 9 -41 14 -43 15 -6 71
-203 77 -270 l6 -68 -123 7 c-108 6 -125 9 -147 29 -43 40 -179 53 -287 28
-20 -5 -22 0 -28 83 -4 48 -11 92 -15 98 -5 5 -11 40 -15 76 -8 79 -8 79 98
79 40 0 76 3 80 8 11 10 309 29 322 20 6 -5 14 -26 18 -47z m-1945 -533 c-1
-7 -5 -24 -9 -38 -7 -23 -8 -23 -9 -3 -1 12 -4 28 -7 37 -4 11 -1 16 10 16 9
0 16 -6 15 -12z m684 -493 c83 -25 80 -18 152 -362 6 -28 -9 -37 -34 -21 -16
9 -67 9 -248 0 -125 -7 -256 -12 -290 -12 l-62 0 -5 43 c-3 23 -10 77 -16 120
-13 97 -13 157 -1 157 6 0 13 20 17 45 3 25 12 49 19 53 22 12 415 -7 468 -23z
m1117 -284 c0 -14 -8 -21 -27 -23 -24 -3 -28 -8 -31 -40 -3 -33 -7 -38 -28
-38 -21 0 -24 4 -24 38 0 56 23 82 71 82 32 0 39 -3 39 -19z m-3336 -7 c9 -23
-2 -34 -35 -34 -27 0 -29 -3 -29 -35 0 -31 -3 -35 -25 -35 -22 0 -25 4 -25 40
0 27 7 47 20 60 25 25 85 27 94 4z m3426 -122 c0 -53 -18 -73 -73 -82 -44 -6
-47 -6 -47 16 0 18 6 23 33 26 29 3 32 6 35 41 3 32 7 37 28 37 21 0 24 -4 24
-38z m-3342 -15 c4 -49 -32 -87 -83 -87 -30 0 -35 3 -35 24 0 21 6 25 33 28
27 3 32 7 35 33 7 57 45 58 50 2z m660 -164 l3 -93 -29 0 c-57 0 -62 6 -62 81
0 85 14 111 55 107 l30 -3 3 -92z m48 83 c28 -28 4 -200 -25 -182 -4 3 -6 169
-1 194 1 6 13 1 26 -12z m-6207 -310 c20 -3 57 -6 84 -6 37 0 47 -4 47 -16 0
-12 -6 -15 -22 -10 -13 3 -58 6 -100 6 -76 0 -78 1 -78 24 0 13 3 33 7 43 6
16 8 15 17 -8 7 -20 18 -28 45 -33z m350 -35 c-15 -5 -22 6 -14 19 6 9 10 9
16 -1 5 -8 4 -15 -2 -18z m3486 -41 c3 -5 15 -10 26 -10 12 0 19 -7 19 -20 0
-21 -16 -26 -39 -11 -16 10 -61 -6 -74 -26 -5 -8 -30 -13 -64 -13 -38 0 -62
-5 -74 -16 -19 -17 -79 -12 -79 7 0 5 -6 9 -12 9 -7 1 -31 9 -53 20 -22 11
-46 19 -52 20 -7 0 -13 4 -13 9 0 5 41 11 92 13 61 2 93 7 96 16 5 15 218 17
227 2z m-542 -28 c7 -5 25 -12 41 -16 15 -4 35 -14 43 -21 13 -13 -2 -15 -116
-15 -76 0 -132 -4 -136 -10 -3 -5 -21 -10 -40 -10 -19 0 -37 5 -40 10 -4 6
-57 10 -128 10 -172 0 -207 -13 -278 -97 -8 -10 -18 -27 -22 -36 -5 -14 -20
-17 -88 -17 -89 0 -90 2 -19 50 12 8 30 22 40 30 10 8 28 22 40 30 12 8 30 22
40 30 10 8 28 22 40 30 12 8 28 21 35 27 10 9 46 11 137 7 81 -4 131 -2 148 5
29 13 285 7 303 -7z m-653 0 c0 -4 -18 -19 -40 -32 -22 -14 -40 -28 -40 -32 0
-5 -5 -8 -10 -8 -12 0 -73 -41 -78 -52 -2 -5 -10 -8 -17 -8 -8 0 -21 -7 -29
-16 -25 -25 -36 -7 -36 61 0 99 -5 95 131 95 65 0 119 -4 119 -8z m3843 -79
c-7 -2 -19 -2 -25 0 -7 3 -2 5 12 5 14 0 19 -2 13 -5z m-6890 -30 c-7 -2 -19
-2 -25 0 -7 3 -2 5 12 5 14 0 19 -2 13 -5z m4218 -98 c11 -43 12 -45 26 -26
22 32 43 15 43 -35 0 -24 -4 -44 -9 -44 -17 0 -20 -44 -6 -99 7 -31 19 -90 26
-131 16 -96 25 -550 11 -550 -18 0 -22 29 -23 153 0 67 -4 154 -9 192 -22 177
-31 242 -40 270 -5 17 -13 50 -19 75 -5 25 -17 74 -26 110 -17 65 -20 103 -9
121 12 20 24 7 35 -36z m4712 -40 c8 -8 17 -11 21 -8 12 12 46 -36 46 -65 0
-39 -35 -82 -66 -82 -13 0 -24 5 -24 10 0 6 -7 10 -15 10 -16 0 -45 49 -45 78
0 24 37 72 55 72 7 0 20 -7 28 -15z m373 0 c4 -8 17 -15 29 -15 18 0 26 -8 35
-35 12 -36 4 -63 -29 -95 -13 -13 -14 -13 -8 3 3 9 2 17 -2 17 -5 0 -11 -7
-15 -15 -4 -12 -10 -13 -38 -1 -50 21 -63 87 -25 130 25 29 45 33 53 11z
m-6456 -25 c0 -5 -5 -10 -11 -10 -5 0 -7 5 -4 10 3 6 8 10 11 10 2 0 4 -4 4
-10z m-2901 -194 c5 -6 12 -32 15 -58 4 -25 14 -52 21 -58 17 -14 20 -30 6
-30 -5 0 -19 17 -32 38 -19 33 -22 52 -24 167 -1 72 0 90 2 41 2 -50 8 -95 12
-100z m298 -6 c6 -15 7 -19 18 -78 3 -18 15 -48 27 -67 17 -31 18 -34 3 -29
-36 14 -57 91 -60 224 -1 69 0 89 2 45 2 -44 6 -87 10 -95z m2958 160 c13 -6
15 -9 5 -9 -8 0 -22 4 -30 9 -18 12 -2 12 25 0z m-54 -7 c-20 -8 -51 -41 -62
-66 -8 -20 -9 -19 -4 6 7 35 34 65 60 65 12 0 15 -2 6 -5z m92 -17 c4 -10 1
-13 -8 -9 -8 3 -12 9 -9 14 7 12 11 11 17 -5z m3680 -1 c145 -9 141 -5 110
-102 -16 -47 -21 -54 -43 -52 -65 3 -88 -1 -93 -20 -4 -17 -14 -18 -123 -14
-66 2 -144 8 -174 13 -30 5 -136 12 -235 15 -222 7 -326 21 -318 42 5 12 26
14 122 10 64 -3 130 -7 146 -8 25 -3 30 0 28 16 -3 25 16 73 37 96 13 15 38
17 215 14 110 -2 257 -6 328 -10z m-2995 -25 c2 -6 10 -10 17 -10 7 0 15 -10
18 -21 l6 -21 -20 21 c-11 11 -26 21 -34 21 -8 0 -15 5 -15 10 0 6 -9 10 -20
10 -11 0 -20 -4 -20 -9 0 -5 -10 -11 -23 -15 -12 -3 -33 -22 -45 -43 -12 -21
-22 -31 -22 -22 0 19 31 57 68 82 28 18 84 17 90 -3z m-649 -40 c0 -10 -3 -8
-9 5 -12 27 -12 43 0 25 5 -8 9 -22 9 -30z m-3238 -77 c6 -23 7 -47 3 -55 -10
-16 -23 55 -22 122 1 37 2 39 5 10 2 -19 8 -54 14 -77z m2792 82 c-1 -11 -3
-53 -4 -92 -1 -40 -3 -73 -5 -73 -1 0 -9 7 -17 14 -11 11 -13 26 -7 57 4 23 5
59 2 81 -4 35 -3 40 14 36 12 -2 18 -11 17 -23z m231 -54 c-4 -23 -9 -40 -11
-37 -3 3 -2 23 2 46 4 23 9 39 11 37 3 -2 2 -23 -2 -46z m935 -1 c0 -10 -3 -8
-9 5 -12 27 -12 43 0 25 5 -8 9 -22 9 -30z m-2749 -8 c0 -50 11 -69 43 -79 25
-7 34 -17 47 -56 9 -26 29 -66 44 -88 14 -23 25 -43 24 -44 -2 -2 -115 -6
-252 -10 -240 -7 -248 -7 -243 11 22 75 47 204 47 244 l0 49 132 0 c72 1 133
3 136 6 10 10 22 -8 22 -33z m-894 -92 l4 -35 -15 30 c-8 17 -14 50 -13 75 l0
45 10 -40 c5 -22 11 -56 14 -75z m7603 64 c23 -26 41 -51 41 -55 0 -20 -25 -6
-61 32 -32 35 -41 40 -54 29 -21 -18 -19 -27 15 -70 29 -37 38 -60 23 -60 -5
0 -29 23 -54 52 l-46 52 31 33 c17 18 38 33 48 33 9 0 35 -21 57 -46z m-4205
-8 c-3 -21 -8 -35 -11 -32 -2 2 -1 20 3 40 3 21 8 35 11 32 2 -2 1 -20 -3 -40z
m-447 -3 c-3 -10 -5 -4 -5 12 0 17 2 24 5 18 2 -7 2 -21 0 -30z m721 -33 c0
-22 -1 -22 -8 5 -4 17 -8 39 -8 50 0 16 2 15 8 -5 4 -14 8 -36 8 -50z m-970
-280 c12 -67 33 -122 50 -133 6 -4 12 -14 12 -20 0 -22 58 -49 90 -42 17 4 30
11 30 17 0 10 -31 69 -41 78 -18 16 -42 126 -45 205 -3 74 -1 83 7 50 5 -22
13 -67 18 -100 13 -86 44 -165 79 -203 18 -20 -36 -72 -77 -72 -17 0 -31 5
-31 10 0 6 -6 10 -12 10 -22 1 -67 75 -87 142 -24 81 -33 181 -24 288 l8 85 7
-130 c3 -71 11 -155 16 -185z m4752 271 c0 -11 5 -23 11 -26 5 -4 9 -19 7 -33
-3 -23 1 -27 20 -25 13 2 32 -2 44 -8 17 -9 19 -17 13 -55 -3 -24 -3 -44 2
-44 12 0 52 -81 86 -175 19 -53 22 -81 22 -236 0 -114 -4 -181 -11 -190 -6 -8
-14 -27 -18 -44 -11 -47 -57 -133 -91 -169 -108 -115 -230 -116 -346 -4 -25
24 -48 50 -52 58 -4 8 -16 30 -27 48 -49 81 -90 253 -90 379 0 70 -2 79 -35
123 -19 26 -35 52 -35 58 0 15 63 52 88 52 16 0 28 15 49 58 15 31 33 61 40
65 7 4 13 12 13 17 0 13 37 50 50 50 6 0 10 3 10 8 0 15 97 53 131 51 35 -3
99 31 99 52 0 5 5 9 10 9 6 0 10 -9 10 -19z m-4083 -113 c-2 -107 17 -271 33
-293 4 -5 13 -26 19 -45 6 -20 25 -51 43 -70 27 -31 38 -35 79 -35 54 0 72 11
46 29 -9 7 -17 18 -17 25 0 6 -3 11 -8 11 -8 0 -40 69 -61 130 -16 47 -26 218
-10 175 6 -16 15 -57 20 -90 4 -33 14 -81 21 -106 16 -56 67 -139 86 -139 8 0
1 -12 -16 -30 -44 -44 -102 -43 -145 3 -62 65 -94 153 -103 281 -6 81 2 266
11 266 2 0 3 -51 2 -112z m1543 82 c36 -5 146 -14 245 -20 99 -5 212 -12 250
-15 39 -2 117 -7 175 -10 58 -3 143 -10 190 -15 81 -9 203 -18 620 -44 l185
-11 -4 -45 c-2 -24 -7 -56 -13 -70 -5 -14 -12 -72 -15 -130 -6 -127 -16 -160
-50 -160 -13 0 -35 -7 -49 -16 -17 -12 -38 -15 -69 -12 -24 3 -47 2 -52 -3 -9
-9 -90 -3 -348 26 -71 8 -197 21 -280 29 -167 17 -205 24 -205 37 0 5 21 9 48
10 26 1 58 4 71 8 20 5 21 8 9 18 -10 9 -89 14 -251 17 -131 3 -245 10 -255
15 -9 4 -73 12 -142 15 -69 4 -129 11 -135 15 -5 4 -37 9 -70 10 -42 2 -64 7
-72 18 -9 12 -13 66 -13 184 l0 167 83 -4 c45 -3 111 -9 147 -14z m-1223 -12
c-3 -8 -6 -5 -6 6 -1 11 2 17 5 13 3 -3 4 -12 1 -19z m-740 -184 c23 -6 25
-10 19 -47 -4 -22 -10 -46 -15 -54 -11 -21 -41 79 -39 131 1 36 2 37 5 9 3
-25 10 -34 30 -39z m660 24 c-3 -7 -5 -2 -5 12 0 14 2 19 5 13 2 -7 2 -19 0
-25z m-2217 -16 c0 -4 -26 -5 -57 -2 l-58 4 50 6 c51 6 65 4 65 -8z m2234 -30
c-6 -4 -14 -14 -17 -22 -4 -10 -6 -8 -6 7 -1 12 5 23 12 26 16 6 24 -2 11 -11z
m41 -62 c14 0 26 7 29 18 3 9 3 -10 0 -43 -7 -67 -23 -108 -40 -97 -15 9 -46
130 -38 144 4 7 10 4 16 -6 5 -9 20 -16 33 -16z m3325 -149 c0 -15 -63 -60
-74 -54 -5 4 5 19 23 35 32 28 51 36 51 19z m-161 -10 c19 -12 5 -30 -18 -24
-24 6 -52 -22 -44 -45 4 -9 18 -32 32 -49 28 -36 61 -42 82 -17 17 21 -1 50
-30 47 -23 -3 -27 7 -9 25 21 21 44 13 64 -23 18 -34 18 -35 -2 -62 -38 -51
-86 -43 -132 21 -43 60 -42 98 3 124 24 14 36 14 54 3z m-129 -71 c0 -6 -5
-19 -12 -29 -10 -17 -6 -28 35 -79 45 -58 57 -82 39 -82 -5 0 -32 30 -61 66
-52 65 -66 72 -85 42 -7 -12 -1 -36 23 -92 32 -73 36 -116 8 -99 -7 4 -48 35
-90 67 -51 39 -75 62 -68 69 6 6 32 -8 75 -42 36 -28 68 -51 70 -51 3 0 -11
34 -30 76 -20 42 -34 78 -32 80 13 13 114 83 121 84 4 0 7 -5 7 -10z m-2126
-49 c15 -16 24 -31 19 -34 -4 -2 -39 -5 -77 -6 -39 -1 -74 -5 -79 -8 -5 -3 -6
5 -2 18 3 13 9 32 11 42 4 13 16 17 53 17 39 0 52 -5 75 -29z m776 -101 l21
-21 -98 1 c-54 1 -132 5 -173 8 l-75 7 85 7 c47 4 103 11 125 17 52 12 90 6
115 -19z m3783 -124 c-1 -22 -8 -43 -15 -48 -7 -4 -56 -8 -109 -8 -107 0 -116
4 -126 65 l-6 36 129 -3 129 -3 -2 -39z m-2206 -218 c-3 -8 -6 -5 -6 6 -1 11
2 17 5 13 3 -3 4 -12 1 -19z m2848 -248 c3 -6 -1 -7 -9 -4 -18 7 -21 14 -7 14
6 0 13 -4 16 -10z m-645 -24 c0 -9 -30 -14 -35 -6 -4 6 3 10 14 10 12 0 21 -2
21 -4z m-685 -46 c3 -5 1 -10 -4 -10 -6 0 -11 5 -11 10 0 6 2 10 4 10 3 0 8
-4 11 -10z m405 0 c0 -5 -5 -10 -11 -10 -5 0 -7 5 -4 10 3 6 8 10 11 10 2 0 4
-4 4 -10z m-535 -30 c3 -6 -1 -7 -9 -4 -18 7 -21 14 -7 14 6 0 13 -4 16 -10z
m-142 -17 c-7 -2 -19 -2 -25 0 -7 3 -2 5 12 5 14 0 19 -2 13 -5z"/>
<path d="M7690 4380 c0 -5 5 -10 10 -10 6 0 10 5 10 10 0 6 -4 10 -10 10 -5 0
-10 -4 -10 -10z"/>
<path d="M7290 4003 c0 -5 5 -15 10 -23 8 -12 10 -11 10 8 0 12 -4 22 -10 22
-5 0 -10 -3 -10 -7z"/>
<path d="M7290 3930 c0 -11 5 -20 10 -20 6 0 10 9 10 20 0 11 -4 20 -10 20 -5
0 -10 -9 -10 -20z"/>
<path d="M7331 3924 c0 -11 3 -14 6 -6 3 7 2 16 -1 19 -3 4 -6 -2 -5 -13z"/>
<path d="M8070 2949 c0 -8 -3 -24 -6 -36 -6 -20 -3 -23 25 -23 18 0 51 -4 74
-10 23 -5 101 -14 172 -20 72 -6 152 -13 179 -17 45 -5 48 -4 42 16 -3 12 -9
30 -12 41 -3 11 -17 23 -32 27 -15 3 -29 10 -32 14 -3 4 -96 11 -208 15 -170
6 -202 5 -202 -7z"/>
<path d="M8221 2830 c-5 -3 -13 -18 -16 -33 -4 -15 -11 -27 -16 -27 -5 0 -9
-11 -9 -25 l0 -25 133 0 c74 0 170 -2 213 -5 43 -3 73 -3 67 1 -7 3 -13 18
-13 32 0 50 -13 57 -112 64 -51 4 -126 11 -166 15 -40 5 -77 6 -81 3z"/>
<path d="M8063 2674 c3 -10 9 -31 13 -46 l6 -28 265 0 266 0 -6 36 c-3 20 -8
38 -9 40 -2 2 -125 6 -272 10 -261 7 -268 7 -263 -12z"/>
<path d="M7048 1573 c7 -3 16 -2 19 1 4 3 -2 6 -13 5 -11 0 -14 -3 -6 -6z"/>
<path d="M7133 1573 c9 -2 23 -2 30 0 6 3 -1 5 -18 5 -16 0 -22 -2 -12 -5z"/>
<path d="M8264 1459 c-9 -16 12 -33 31 -25 14 5 15 9 5 21 -15 18 -26 19 -36
4z"/>
<path d="M8362 1379 c2 -7 10 -15 17 -17 8 -3 12 1 9 9 -2 7 -10 15 -17 17 -8
3 -12 -1 -9 -9z"/>
<path d="M8036 1348 c-25 -35 -19 -42 9 -12 28 30 30 34 16 34 -6 0 -17 -10
-25 -22z"/>
<path d="M8163 1343 c-15 -32 -12 -37 22 -29 20 5 26 12 23 29 -4 31 -31 32
-45 0z"/>
<path d="M8042 1308 c-17 -17 -15 -38 2 -32 17 7 28 31 17 38 -4 3 -13 0 -19
-6z"/>
<path d="M7989 1287 c-27 -38 -39 -84 -25 -96 10 -9 12 -6 8 15 -3 17 3 36 17
55 12 17 21 34 19 39 -2 4 -10 -2 -19 -13z"/>
<path d="M8301 1272 c-37 -31 -41 -74 -7 -80 48 -10 104 61 73 93 -21 21 -28
19 -66 -13z"/>
<path d="M8150 1188 c0 -18 -12 -29 -53 -49 -28 -14 -58 -37 -64 -50 -11 -20
-13 -21 -13 -5 0 11 -3 16 -7 13 -3 -4 -8 -55 -11 -114 -4 -97 -2 -114 19
-161 12 -28 26 -52 31 -52 4 0 8 -6 8 -12 0 -7 19 -22 42 -32 32 -15 45 -17
59 -8 10 7 26 12 34 12 12 0 13 4 6 18 -10 20 2 42 24 42 12 0 35 47 35 72 0
14 6 18 28 16 18 -2 27 2 27 12 0 21 -33 25 -54 6 -21 -19 -31 -12 -31 21 0
14 6 23 15 23 17 0 21 55 5 65 -14 9 -12 36 3 34 26 -3 36 2 31 15 -9 23 -40
25 -53 4 -12 -20 -13 -20 -27 0 -8 11 -11 28 -8 37 4 10 -1 21 -12 30 -11 7
-16 17 -11 21 4 4 7 2 7 -6 0 -10 3 -10 15 0 19 16 19 40 1 40 -8 0 -22 7 -30
16 -15 14 -16 13 -16 -8z"/>
<path d="M8055 1179 c-4 -6 -5 -13 -2 -16 7 -7 27 6 27 18 0 12 -17 12 -25 -2z"/>
<path d="M7860 1165 c-10 -12 -9 -20 4 -40 9 -14 20 -25 25 -25 7 0 21 46 21
71 0 15 -37 10 -50 -6z"/>
<path d="M7910 1086 c0 -2 7 -9 15 -16 12 -10 15 -10 15 4 0 9 -7 16 -15 16
-8 0 -15 -2 -15 -4z"/>
<path d="M8378 1071 c-21 -20 -24 -61 -6 -79 31 -31 108 0 108 43 0 47 -68 71
-102 36z"/>
<path d="M7924 929 c-18 -20 -18 -20 21 -17 28 2 41 8 43 21 5 25 -40 22 -64
-4z"/>
<path d="M8481 851 c-1 -17 -5 -21 -17 -17 -9 4 -13 2 -8 -5 3 -6 -4 -4 -17 4
-13 8 -43 18 -65 22 l-42 6 -6 -43 c-9 -53 -31 -87 -48 -70 -7 7 -17 8 -30 1
-26 -14 -23 -39 6 -39 32 0 25 -29 -16 -65 -42 -38 -88 -49 -140 -34 l-43 12
32 11 c26 9 30 14 22 29 -6 9 -19 17 -29 17 -11 0 -20 7 -20 15 0 8 -7 15 -15
15 -12 0 -14 -4 -7 -16 12 -21 3 -56 -11 -47 -6 4 -7 -4 -3 -23 4 -16 8 -29 9
-29 12 -3 77 -52 77 -57 0 -5 5 -8 11 -8 6 0 28 -14 49 -30 40 -31 60 -38 60
-19 0 8 4 8 13 2 14 -11 20 -11 75 7 29 9 41 18 38 27 -3 8 -2 12 3 9 12 -8
57 36 66 62 3 12 11 22 16 22 5 0 9 5 9 11 0 6 7 25 15 42 19 42 34 154 24
186 -7 26 -7 26 -8 2z m-111 -100 c0 -11 -4 -9 -14 4 -8 11 -12 24 -9 28 7 11
23 -12 23 -32z m73 -38 c-7 -2 -19 -2 -25 0 -7 3 -2 5 12 5 14 0 19 -2 13 -5z"/>
<path d="M7965 790 c3 -6 -2 -18 -11 -28 -17 -16 -16 -17 21 -20 24 -2 41 2
46 10 5 7 4 14 -1 16 -6 2 -10 9 -10 16 0 6 -11 13 -26 14 -14 1 -23 -2 -19
-8z"/>
<path d="M8153 652 c-32 -10 -13 -34 23 -30 18 2 30 10 32 21 4 18 -13 21 -55
9z"/>
<path d="M4425 5294 c-33 -7 -89 -21 -125 -30 -36 -8 -92 -23 -125 -31 -33 -8
-87 -22 -120 -30 -33 -8 -87 -22 -120 -30 -33 -8 -85 -21 -115 -29 -70 -18
-157 -39 -240 -60 -36 -9 -92 -23 -125 -31 -33 -8 -85 -21 -115 -29 -30 -7
-82 -20 -115 -29 -33 -8 -87 -21 -120 -30 -33 -8 -87 -21 -120 -30 -33 -8 -87
-21 -120 -30 -33 -8 -89 -22 -125 -31 -36 -9 -90 -22 -120 -30 -70 -18 -157
-39 -240 -60 -36 -9 -92 -23 -125 -31 -33 -8 -87 -22 -120 -30 -33 -8 -85 -21
-115 -28 -30 -7 -75 -18 -100 -24 -25 -7 -72 -19 -105 -27 -33 -9 -74 -19 -91
-25 -16 -5 -50 -13 -75 -19 -24 -5 -71 -16 -104 -25 -95 -24 -186 -46 -245
-60 -30 -7 -75 -18 -100 -24 -25 -7 -72 -19 -105 -28 -33 -8 -82 -21 -109 -29
-26 -8 -55 -14 -64 -14 -8 0 -38 -6 -66 -14 -28 -8 -80 -22 -116 -31 -36 -9
-87 -23 -115 -30 -27 -7 -113 -27 -190 -45 -77 -18 -147 -36 -155 -40 -9 -4
-36 -11 -60 -14 -89 -14 -80 39 -80 -472 l0 -455 22 15 c24 17 85 21 107 7 24
-16 -3 -48 -37 -43 -34 5 -74 -30 -65 -57 9 -25 83 -119 99 -125 24 -9 64 16
71 43 3 14 9 31 13 36 15 21 19 80 7 102 -6 12 -40 61 -75 110 -57 80 -61 89
-45 101 9 6 20 12 24 12 3 0 30 -36 59 -80 29 -44 56 -80 59 -80 4 0 13 28 21
63 7 34 21 78 31 97 9 19 29 62 44 95 78 177 178 339 257 416 93 91 171 115
199 62 28 -53 7 -175 -41 -233 -19 -24 -25 -26 -37 -15 -26 26 -7 105 35 142
18 17 23 28 18 48 -9 37 -33 31 -86 -22 -50 -51 -92 -111 -128 -183 -13 -25
-26 -52 -31 -60 -30 -54 -71 -148 -71 -162 0 -9 -4 -19 -9 -22 -10 -6 -86
-235 -80 -240 2 -1 30 -10 62 -19 l58 -16 6 30 c3 16 10 32 14 35 5 3 9 14 9
26 0 11 6 34 14 51 7 18 21 52 32 77 10 25 30 64 46 88 15 24 28 47 28 51 0
17 112 121 131 121 42 0 54 -27 52 -114 -1 -45 -6 -93 -12 -108 -5 -14 -7 -28
-4 -32 9 -9 82 73 100 114 28 65 122 173 165 191 25 10 32 9 53 -11 21 -20 25
-33 25 -82 0 -70 -32 -151 -66 -167 -31 -14 -38 -1 -29 55 4 32 15 53 36 71
36 32 40 68 7 59 -13 -3 -26 -6 -30 -6 -5 0 -8 -7 -8 -15 0 -8 -3 -15 -7 -15
-10 0 -37 -45 -75 -122 -55 -112 -88 -220 -95 -311 -8 -101 22 -125 80 -64 38
40 48 55 82 122 14 28 30 57 35 65 5 8 37 74 71 145 70 145 142 259 189 299
35 29 80 34 103 11 12 -12 16 -12 20 -1 3 8 20 16 39 18 18 3 41 8 51 13 29
12 19 -31 -29 -128 -8 -16 -14 -34 -14 -41 0 -7 -6 -26 -14 -42 -7 -16 -35
-85 -61 -154 -25 -69 -52 -136 -58 -150 -35 -80 -36 -125 -1 -102 18 12 118
176 130 215 6 16 44 25 44 10 0 -16 -84 -171 -135 -250 -60 -91 -78 -112 -123
-138 -31 -18 -31 -18 -51 6 -12 13 -21 39 -21 59 l0 35 -26 -40 c-32 -50 -69
-77 -101 -77 -36 0 -53 29 -52 92 0 30 0 60 0 65 -1 6 -13 -9 -27 -32 -14 -24
-29 -43 -35 -43 -5 0 -9 -5 -9 -11 0 -19 -59 -70 -92 -80 -49 -14 -83 4 -97
50 -22 75 -14 148 36 324 3 9 2 17 -2 17 -21 0 -53 -60 -84 -160 -16 -50 -103
-192 -142 -231 -21 -21 -51 -31 -72 -23 -27 10 -40 71 -33 151 5 70 5 73 -13
61 -14 -9 -31 -9 -65 -1 -44 10 -45 9 -54 -16 -6 -16 -5 -35 1 -49 8 -18 7
-26 -4 -32 -11 -7 -14 -36 -14 -132 1 -153 16 -189 104 -235 28 -15 77 -17 86
-3 3 6 15 10 26 10 18 0 89 27 129 49 9 5 30 12 48 16 18 3 32 11 32 15 0 5
16 12 35 16 19 3 35 10 35 14 0 4 17 11 38 15 20 4 43 12 51 18 8 7 58 12 130
12 117 0 152 -8 209 -50 21 -16 155 -148 174 -173 21 -26 25 -48 6 -32 -48 40
-63 50 -75 50 -7 0 -13 4 -13 8 0 18 -154 49 -164 33 -4 -6 -15 -11 -25 -11
-19 0 -71 -43 -71 -58 0 -6 -7 -12 -15 -16 -10 -3 -15 1 -15 13 0 10 -7 21
-15 25 -8 3 -15 12 -15 21 0 8 -3 15 -8 15 -4 0 -21 12 -37 28 -29 26 -33 27
-139 27 -78 0 -111 -4 -114 -13 -2 -6 -10 -12 -18 -12 -14 0 -45 -13 -141 -56
-17 -8 -38 -14 -46 -14 -9 0 -18 -4 -22 -9 -8 -14 -89 -24 -131 -16 -43 8
-124 85 -124 119 0 12 -5 27 -11 33 -6 6 -13 50 -16 97 -5 78 -7 84 -24 76
-41 -22 -71 -11 -131 48 -52 52 -58 56 -58 35 0 -13 16 -45 35 -70 45 -59 47
-103 8 -131 -16 -11 -32 -21 -37 -23 -4 -2 -8 -37 -9 -76 0 -40 -4 -73 -10
-73 -5 0 -5 -6 2 -13 6 -8 9 -16 6 -19 -3 -3 -7 -78 -10 -166 l-4 -162 1240 0
c973 0 1244 3 1260 13 17 10 23 10 26 0 3 -7 13 -13 22 -13 14 0 17 6 13 25
-7 41 49 92 89 80 25 -8 15 -25 -15 -25 -30 0 -48 -22 -44 -52 3 -21 9 -23 60
-26 49 -3 57 -1 52 12 -4 11 -14 14 -33 10 l-26 -5 24 20 c31 28 38 27 56 -9
l16 -30 819 0 820 0 2 838 c4 1132 -1 2052 -10 2051 -4 -1 -34 -7 -67 -15z
m-201 -500 c-14 -22 -30 -48 -35 -59 -25 -52 -128 -195 -141 -195 -4 0 -8 -5
-8 -10 0 -11 -125 -140 -135 -140 -3 0 -16 -10 -28 -22 -29 -30 -83 -68 -97
-68 -5 0 -10 -3 -10 -7 0 -9 -116 -66 -180 -87 -25 -9 -75 -19 -112 -22 -59
-6 -68 -5 -68 10 0 9 5 16 10 16 6 0 15 10 21 23 16 36 65 113 85 134 7 7 43
17 80 23 38 6 73 15 79 21 5 5 16 9 25 9 27 0 184 94 260 155 34 27 219 213
249 250 34 41 38 16 5 -31z m-412 -61 c38 -34 4 -224 -46 -256 -53 -34 -57
-31 -36 26 11 29 25 60 30 69 6 10 10 34 10 53 0 51 -25 45 -85 -19 -129 -137
-275 -344 -360 -511 -9 -16 -24 -43 -34 -60 -24 -38 -181 -349 -181 -359 0 -3
-13 -34 -29 -69 -16 -34 -35 -75 -42 -92 -7 -16 -15 -33 -17 -37 -2 -5 2 -8
10 -7 11 0 82 76 166 179 15 18 37 45 50 59 13 14 31 38 40 53 9 16 20 28 24
28 4 0 8 7 8 15 0 8 4 15 8 15 5 0 35 39 67 88 33 48 63 89 67 90 5 2 8 10 8
18 0 8 6 17 14 20 8 3 17 16 20 30 4 13 11 24 16 24 6 0 10 6 10 14 0 19 57
76 76 76 23 0 16 -22 -31 -93 -25 -38 -45 -73 -45 -77 0 -5 -3 -10 -7 -12 -9
-3 -53 -64 -53 -72 0 -3 -6 -14 -14 -23 -8 -10 -50 -65 -92 -123 -43 -58 -82
-110 -88 -116 -6 -6 -24 -29 -41 -50 -16 -21 -85 -95 -152 -163 -68 -69 -123
-131 -123 -138 0 -7 -6 -27 -14 -45 -18 -44 -41 -126 -62 -219 -16 -71 -16
-77 0 -102 28 -41 56 -22 124 83 20 30 59 100 87 155 139 270 279 459 401 540
69 46 117 47 161 5 l31 -31 13 29 c12 28 16 29 102 36 50 3 92 5 94 3 1 -2
-80 -170 -182 -373 -105 -210 -185 -381 -185 -397 0 -47 26 -44 78 9 27 27 64
72 83 99 19 28 37 52 42 53 4 2 7 8 7 14 0 5 14 29 30 53 17 24 30 48 30 54 0
6 15 11 34 11 29 0 33 -3 29 -20 -3 -11 -9 -20 -13 -20 -5 0 -12 -9 -15 -21
-8 -26 -114 -185 -174 -263 -68 -88 -152 -166 -178 -166 -7 0 -13 -4 -13 -9 0
-18 -69 -33 -99 -23 -16 6 -31 8 -34 6 -2 -3 -20 13 -40 35 l-37 41 -26 -25
c-15 -14 -31 -25 -36 -25 -5 0 -6 -5 -3 -10 4 -7 13 -6 27 1 29 16 68 -3 68
-34 0 -29 -18 -47 -47 -47 -31 0 -29 16 3 24 36 9 24 31 -17 32 -19 1 -38 3
-44 4 -5 1 -19 2 -29 1 -18 -1 -18 -2 -1 -21 17 -19 17 -20 -9 -41 -29 -23
-34 -44 -10 -53 20 -8 33 0 44 28 7 19 9 19 15 3 10 -23 -21 -57 -51 -57 -43
0 -105 96 -74 115 15 9 12 25 -4 25 -25 0 -48 49 -49 106 -1 30 -4 54 -8 54
-4 0 -14 -12 -24 -26 -29 -44 -108 -120 -144 -138 -39 -18 -61 -21 -61 -6 0 6
-6 10 -13 10 -22 0 -43 31 -57 83 -16 60 -7 124 50 345 l8 33 -36 -3 c-36 -3
-38 -6 -89 -105 -94 -187 -175 -291 -275 -356 -59 -37 -120 -6 -134 69 -14 77
26 311 57 330 5 3 9 13 9 22 0 25 57 135 122 234 54 82 136 176 168 192 8 4
26 13 40 21 37 22 96 19 119 -6 25 -27 34 -91 21 -154 -17 -84 -26 -119 -38
-142 -21 -38 -15 -54 16 -47 31 8 62 39 62 63 1 9 9 34 20 56 11 22 19 44 20
48 0 5 12 34 26 65 14 31 38 84 54 117 47 103 140 285 196 385 48 86 174 273
186 278 4 2 8 10 8 18 0 8 7 17 15 20 8 4 15 10 15 16 0 5 6 15 13 23 27 29
47 56 47 64 0 5 4 11 9 13 4 2 35 35 67 73 61 73 99 111 147 148 16 12 34 27
41 32 51 43 109 55 138 28z m-789 -179 c29 -9 66 -22 82 -29 17 -8 46 -20 65
-28 89 -37 180 -82 180 -88 0 -4 -26 -44 -57 -89 -54 -76 -60 -81 -88 -75 -16
3 -31 9 -35 13 -5 6 -46 30 -125 71 -16 9 -32 18 -35 21 -11 11 -98 50 -112
50 -8 0 -19 5 -25 11 -13 13 -167 18 -179 6 -4 -4 -7 -23 -6 -41 4 -53 -41
-239 -77 -321 -23 -54 -57 -115 -62 -115 -4 0 -10 -11 -13 -25 -4 -14 -11 -25
-16 -25 -6 0 -10 -4 -10 -10 0 -11 -52 -65 -94 -98 -36 -28 -63 -28 -93 0 -46
43 -24 167 63 345 25 51 50 93 55 93 5 0 9 5 9 11 0 15 54 84 107 137 24 24
43 45 43 48 0 2 -13 4 -30 4 -16 0 -30 -4 -30 -10 0 -5 -7 -10 -15 -10 -18 0
-156 -135 -200 -195 -16 -22 -34 -45 -39 -50 -15 -15 -36 -47 -42 -67 -4 -10
-10 -18 -15 -18 -5 0 -14 -10 -19 -22 -6 -13 -16 -32 -22 -43 -34 -52 -65
-106 -98 -170 -20 -38 -41 -79 -47 -90 -20 -39 -71 -151 -88 -195 -9 -25 -23
-58 -29 -75 -12 -28 -21 -56 -60 -190 -25 -87 -39 -244 -27 -298 13 -56 37
-97 57 -97 8 0 14 -4 14 -10 0 -27 78 7 126 54 38 37 124 164 124 183 0 7 5
13 10 13 6 0 10 5 10 11 0 6 6 25 14 42 32 75 38 94 51 166 18 93 18 131 1
154 -18 23 -22 22 -59 -15 -46 -48 -97 -157 -97 -210 0 -23 -14 -43 -63 -91
-34 -34 -70 -73 -79 -86 -26 -37 -32 -19 -19 51 18 98 40 167 77 244 36 76
106 164 130 164 8 0 14 4 14 8 0 16 77 33 102 23 39 -15 51 -58 45 -163 -7
-142 -71 -313 -170 -463 -51 -76 -157 -182 -191 -191 -14 -3 -26 -10 -26 -15
0 -5 -25 -9 -55 -9 -51 0 -57 3 -99 44 -32 33 -49 60 -61 103 -32 109 -31 154
4 348 13 69 86 286 122 365 59 126 109 225 139 275 16 28 33 57 37 65 12 26
108 165 115 168 5 2 8 8 8 13 0 5 8 17 18 27 9 10 37 42 61 71 65 78 132 141
191 181 12 8 28 21 36 28 7 6 17 12 23 12 5 0 17 7 26 16 20 20 133 31 161 16
15 -8 27 -7 45 3 144 82 239 101 342 69z m-1133 -625 c0 -6 -9 -31 -19 -57
-11 -26 -22 -55 -25 -64 -3 -11 -15 -18 -30 -18 -14 0 -37 -5 -51 -12 -34 -15
-43 -3 -22 33 9 17 17 37 17 45 0 26 32 64 54 64 11 0 28 5 36 10 20 13 40 13
40 -1z m1108 -1223 c38 -20 85 -83 85 -114 0 -17 -12 -35 -34 -53 -19 -16 -37
-27 -40 -26 -10 4 -119 136 -119 145 0 7 69 62 78 62 2 0 15 -6 30 -14z m-68
-165 c0 -12 -49 -51 -63 -51 -6 0 2 14 18 30 29 30 45 38 45 21z"/>
<path d="M3597 3652 c-31 -15 -97 -77 -97 -91 0 -5 -4 -11 -8 -13 -12 -4 -112
-153 -112 -166 0 -6 -4 -12 -9 -14 -17 -6 -139 -275 -149 -331 -13 -67 -8 -87
23 -87 60 0 148 145 350 575 21 44 42 82 46 83 13 5 11 32 -3 46 -10 9 -19 9
-41 -2z"/>
<path d="M2641 3551 c-37 -33 -71 -95 -71 -130 0 -35 32 -100 53 -106 9 -4 17
-11 17 -16 0 -18 27 -9 37 14 54 120 59 267 8 267 -6 0 -26 -13 -44 -29z"/>
<path d="M2481 3276 c-70 -149 -84 -190 -89 -265 -3 -53 -1 -67 13 -77 34 -25
92 23 151 123 71 120 94 193 62 193 -14 0 -78 62 -78 76 0 7 -6 14 -13 17 -7
3 -25 -23 -46 -67z"/>
<path d="M3286 2875 c-4 -12 0 -25 14 -37 19 -18 20 -18 20 0 0 10 -6 26 -13
36 -13 18 -14 18 -21 1z"/>
<path d="M3090 2725 c0 -28 8 -31 35 -12 21 16 12 37 -16 37 -14 0 -19 -7 -19
-25z"/>
<path d="M2593 4341 c-69 -70 -128 -156 -177 -257 -16 -32 -35 -70 -42 -84 -6
-14 -17 -50 -24 -81 -14 -61 -3 -99 26 -99 20 0 81 61 121 120 34 50 103 193
103 213 0 8 6 33 14 58 17 53 28 159 16 159 -5 0 -21 -13 -37 -29z"/>
<path d="M2948 2679 c-25 -14 -23 -25 20 -80 41 -54 51 -58 76 -30 20 22 12
46 -32 94 -28 29 -38 32 -64 16z"/>
<path d="M8575 4843 c-56 -14 -37 -27 51 -36 36 -4 41 -2 37 13 -3 10 -11 16
-18 14 -7 -3 -16 -1 -20 5 -6 11 -16 12 -50 4z"/>
<path d="M8741 4710 c0 -8 11 -33 25 -55 18 -28 23 -33 18 -15 -3 14 -10 27
-15 30 -4 3 -12 17 -18 30 -5 14 -10 18 -10 10z"/>
<path d="M9380 4537 c0 -2 8 -13 18 -24 21 -25 145 -42 136 -19 -3 8 -25 17
-50 21 -24 3 -44 10 -44 16 0 5 -13 9 -30 9 -16 0 -30 -2 -30 -3z"/>
<path d="M9278 4443 c23 -2 59 -2 80 0 20 2 1 4 -43 4 -44 0 -61 -2 -37 -4z"/>
<path d="M9477 4423 c18 -2 50 -2 70 0 21 2 7 4 -32 4 -38 0 -55 -2 -38 -4z"/>
<path d="M8987 4321 c-3 -14 0 -17 14 -14 11 3 19 12 19 19 0 21 -27 17 -33
-5z"/>
<path d="M9322 4314 c-11 -12 -10 -15 2 -20 9 -3 23 -3 32 0 14 5 14 8 0 21
-18 18 -18 18 -34 -1z"/>
<path d="M10123 4303 c15 -2 39 -2 55 0 15 2 2 4 -28 4 -30 0 -43 -2 -27 -4z"/>
<path d="M9637 4293 c-14 -13 -6 -23 18 -23 16 0 25 6 25 15 0 15 -31 21 -43
8z"/>
<path d="M10318 4273 c7 -3 16 -2 19 1 4 3 -2 6 -13 5 -11 0 -14 -3 -6 -6z"/>
<path d="M10412 4238 c9 -7 18 -22 20 -33 3 -18 4 -18 10 -3 7 18 -14 48 -35
48 -6 0 -4 -6 5 -12z"/>
<path d="M10070 4231 c0 -10 30 -24 37 -17 3 3 2 9 -2 15 -8 13 -35 15 -35 2z"/>
<path d="M10032 4115 c0 -11 3 -29 8 -40 11 -25 11 1 0 35 -6 20 -8 21 -8 5z"/>
<path d="M10370 3764 c0 -298 1 -322 18 -337 10 -10 24 -17 30 -17 7 0 12 -5
12 -12 0 -9 3 -9 12 0 7 7 8 15 1 24 -22 29 -33 136 -37 377 -4 214 -7 256
-20 269 -15 15 -16 -12 -16 -304z"/>
<path d="M9955 4060 c3 -5 8 -10 11 -10 2 0 4 5 4 10 0 6 -5 10 -11 10 -5 0
-7 -4 -4 -10z"/>
<path d="M10061 4024 c0 -11 3 -14 6 -6 3 7 2 16 -1 19 -3 4 -6 -2 -5 -13z"/>
<path d="M10071 3984 c0 -11 3 -14 6 -6 3 7 2 16 -1 19 -3 4 -6 -2 -5 -13z"/>
<path d="M10086 3952 c-4 -7 -3 -19 4 -27 7 -8 10 -24 7 -35 -3 -11 -1 -20 3
-20 5 0 9 -8 8 -17 0 -10 8 -43 19 -73 11 -30 32 -91 47 -135 16 -44 32 -84
37 -90 5 -5 9 -19 9 -31 0 -12 7 -24 15 -28 19 -7 19 4 0 40 -8 16 -15 36 -15
45 0 9 -7 30 -15 45 -8 16 -15 36 -15 45 0 9 -7 30 -15 45 -8 16 -15 39 -15
52 0 12 -4 22 -9 22 -6 0 -13 20 -17 45 -3 25 -10 45 -14 45 -4 0 -11 19 -16
43 -6 28 -12 38 -18 29z"/>
<path d="M1510 3801 c-49 -56 -177 -332 -200 -431 -23 -102 -23 -99 -5 -106
31 -12 73 60 140 236 9 25 23 58 31 73 8 16 14 36 14 46 0 9 4 21 9 27 9 9 61
150 61 166 0 14 -34 7 -50 -11z"/>
<path d="M10521 3774 c0 -11 3 -14 6 -6 3 7 2 16 -1 19 -3 4 -6 -2 -5 -13z"/>
<path d="M10511 3724 c0 -11 3 -14 6 -6 3 7 2 16 -1 19 -3 4 -6 -2 -5 -13z"/>
<path d="M879 3711 c-27 -27 -49 -78 -49 -114 0 -31 14 -52 47 -71 19 -11 43
58 43 124 0 65 -15 87 -41 61z"/>
<path d="M10482 3523 c-1 -29 -6 -53 -11 -53 -5 0 -11 -9 -14 -20 -6 -24 -1
-25 19 -5 11 10 14 31 11 72 l-3 58 -2 -52z"/>
<path d="M772 3488 c-40 -110 -56 -172 -56 -218 -1 -38 2 -45 20 -48 16 -2 30
10 56 50 19 29 38 62 41 73 3 11 14 43 24 70 l20 50 -33 30 c-19 17 -34 36
-34 43 0 30 -18 7 -38 -50z"/>
<path d="M10330 3400 c0 -13 11 -13 30 0 12 8 11 10 -7 10 -13 0 -23 -4 -23
-10z"/>
<path d="M137 3031 c-3 -12 -1 -24 4 -27 13 -8 24 25 12 37 -7 7 -12 3 -16
-10z"/>
<path d="M10257 2802 c-21 -4 -21 -17 8 -342 12 -134 46 -801 45 -887 0 -19 6
-23 30 -23 29 0 30 1 30 48 -1 26 -5 128 -10 227 -5 99 -14 272 -20 385 -5
113 -14 239 -19 280 -6 41 -13 128 -16 192 -7 118 -11 129 -48 120z"/>
<path d="M10340 2788 c0 -13 6 -97 15 -188 24 -273 45 -636 45 -786 0 -78 3
-169 6 -203 6 -57 9 -61 32 -61 l25 0 -6 228 c-3 125 -11 290 -16 367 -6 77
-16 212 -22 300 -7 88 -15 205 -18 260 -6 100 -6 100 -33 103 -23 3 -28 0 -28
-20z"/>
<path d="M10444 2738 c4 -40 11 -145 16 -233 5 -88 14 -223 20 -300 6 -77 14
-255 18 -395 7 -250 7 -255 28 -258 12 -2 24 3 26 10 6 17 -9 575 -17 605 -3
13 -9 105 -14 205 -5 101 -15 240 -22 311 -13 125 -13 127 -37 127 -25 0 -25
0 -18 -72z"/>
<path d="M10534 2788 c3 -13 11 -113 16 -223 6 -110 13 -206 16 -214 4 -12 34
-689 34 -773 0 -23 4 -28 25 -28 l26 0 -6 233 c-4 127 -11 291 -16 362 -5 72
-14 211 -19 310 -6 99 -14 216 -19 260 -5 44 -7 83 -5 87 3 5 -9 8 -27 8 -28
0 -31 -3 -25 -22z"/>
<path d="M10632 2728 c15 -163 27 -379 43 -753 9 -209 18 -390 21 -402 3 -15
12 -23 24 -23 21 0 23 4 21 60 -1 19 -6 157 -11 305 -5 149 -14 329 -20 400
-5 72 -15 212 -21 313 l-12 182 -26 0 -26 0 7 -82z"/>
<path d="M10715 2801 c3 -5 10 -92 15 -193 6 -101 14 -226 20 -278 5 -52 14
-241 20 -420 6 -179 14 -333 16 -342 6 -21 32 -24 40 -4 7 18 -13 588 -25 741
-10 120 -33 440 -35 483 -1 17 -7 22 -29 22 -16 0 -26 -4 -22 -9z"/>
<path d="M10804 2783 c3 -16 10 -113 16 -218 6 -104 13 -199 15 -210 3 -11 12
-189 20 -394 8 -206 17 -383 21 -393 6 -21 30 -24 37 -5 6 15 -10 591 -18 634
-3 18 -10 115 -15 216 -5 101 -15 232 -22 291 -12 102 -13 106 -36 106 -21 0
-24 -3 -18 -27z"/>
<path d="M11226 2713 c16 -130 34 -437 48 -823 l11 -315 24 -3 24 -4 -6 209
c-5 198 -13 332 -38 668 -6 83 -13 198 -16 258 l-5 107 -28 0 -27 0 13 -97z"/>
<path d="M11304 2708 c4 -57 11 -148 16 -203 15 -153 33 -487 39 -720 6 -201
7 -210 26 -210 17 0 21 8 24 45 3 45 -11 351 -30 640 -5 85 -14 229 -20 320
-5 91 -11 176 -13 190 -3 14 -5 28 -5 33 -1 4 -11 7 -22 7 -21 0 -22 -2 -15
-102z"/>
<path d="M11376 2801 c-2 -3 0 -42 5 -86 16 -151 34 -469 54 -955 7 -177 10
-191 32 -183 14 6 15 33 10 252 -3 135 -10 302 -16 371 -15 180 -33 422 -38
517 -4 69 -8 82 -24 86 -10 3 -21 2 -23 -2z"/>
<path d="M11454 2708 c3 -51 10 -140 16 -198 16 -171 33 -480 39 -710 6 -213
6 -215 29 -218 21 -3 22 -1 22 75 0 75 -8 235 -31 578 -5 88 -14 230 -19 315
-13 225 -18 250 -42 250 -20 0 -21 -4 -14 -92z"/>
<path d="M11523 2748 c4 -29 11 -129 17 -223 5 -93 14 -215 20 -270 5 -55 12
-194 15 -310 3 -115 8 -245 11 -287 5 -70 8 -78 27 -78 20 0 20 3 14 208 -4
114 -11 261 -17 327 -5 66 -15 192 -21 280 -10 154 -27 382 -28 398 -1 4 -11
7 -22 7 -20 0 -21 -4 -16 -52z"/>
<path d="M11588 2794 c-3 -3 -2 -20 2 -37 4 -18 11 -86 14 -152 4 -66 11 -160
16 -210 5 -49 14 -200 21 -335 6 -135 13 -252 14 -260 2 -8 4 -61 4 -117 1
-83 4 -103 15 -103 8 0 17 4 20 8 7 11 -11 527 -23 672 -6 69 -16 184 -22 255
-7 72 -14 165 -16 208 -4 64 -8 77 -22 77 -10 0 -20 -3 -23 -6z"/>
<path d="M11660 2748 c0 -29 6 -118 15 -198 22 -219 45 -626 45 -795 0 -82 4
-155 8 -161 4 -7 16 -14 27 -16 11 -3 -3 -5 -31 -5 -29 0 -60 -6 -70 -12 -15
-8 -3 -10 55 -11 l73 0 -5 258 c-3 141 -10 307 -16 367 -16 160 -30 322 -42
470 -11 129 -19 155 -45 155 -10 0 -14 -15 -14 -52z"/>
<path d="M11772 2520 c0 -14 2 -19 5 -12 2 6 2 18 0 25 -3 6 -5 1 -5 -13z"/>
<path d="M11782 2390 c0 -19 2 -27 5 -17 2 9 2 25 0 35 -3 9 -5 1 -5 -18z"/>
<path d="M905 2300 c-3 -5 -1 -10 4 -10 6 0 11 5 11 10 0 6 -2 10 -4 10 -3 0
-8 -4 -11 -10z"/>
<path d="M1780 2281 c0 -6 5 -13 10 -16 6 -3 10 1 10 9 0 9 -4 16 -10 16 -5 0
-10 -4 -10 -9z"/>
<path d="M11798 2241 c-2 -21 0 -49 3 -62 5 -15 7 -1 8 39 1 69 -5 83 -11 23z"/>
<path d="M2876 2255 c4 -8 10 -15 15 -15 5 0 9 7 9 15 0 8 -7 15 -15 15 -9 0
-12 -6 -9 -15z"/>
<path d="M4282 2238 c5 -32 28 -35 28 -4 0 17 -5 26 -16 26 -10 0 -14 -7 -12
-22z"/>
<path d="M120 2214 c0 -9 5 -14 12 -12 18 6 21 28 4 28 -9 0 -16 -7 -16 -16z"/>
<path d="M11806 2007 c-4 -60 -6 -110 -3 -113 14 -15 21 34 17 121 l-5 100 -9
-108z"/>
<path d="M11810 1655 c0 -60 3 -75 15 -75 12 0 15 14 15 69 0 52 -4 70 -15 75
-13 4 -15 -7 -15 -69z"/>
<path d="M10225 1148 c12 -76 13 -78 54 -78 43 0 61 14 61 50 0 62 -8 70 -67
70 l-55 0 7 -42z"/>
<path d="M9380 90 c0 -5 5 -10 10 -10 6 0 10 5 10 10 0 6 -4 10 -10 10 -5 0
-10 -4 -10 -10z"/>
</g>
</svg>
